<?xml version="1.0" standalone="no"?>
<!DOCTYPE svg PUBLIC "-//W3C//DTD SVG 20010904//EN"
 "http://www.w3.org/TR/2001/REC-SVG-20010904/DTD/svg10.dtd">
<svg version="1.0" xmlns="http://www.w3.org/2000/svg"
 width="700.000000pt" height="700.000000pt" viewBox="0 0 700.000000 700.000000"
 preserveAspectRatio="xMidYMid meet">
<metadata>
Created by potrace 1.11, written by Peter Selinger 2001-2013
</metadata>
<g transform="translate(0.000000,700.000000) scale(0.100000,-0.100000)"
fill="#000000" stroke="none">
<path d="M2123 5892 c-159 -196 -358 -442 -627 -777 -88 -110 -166 -207 -173
-215 -7 -8 -35 -44 -64 -80 -28 -36 -61 -76 -73 -90 -11 -14 -43 -54 -69 -88
l-49 -62 34 -14 c28 -12 159 -42 258 -60 36 -6 212 -46 233 -52 28 -9 20 -34
-47 -142 -100 -159 -125 -203 -216 -386 l-85 -171 -70 -22 c-49 -16 -79 -33
-101 -56 -28 -30 -69 -119 -80 -172 -2 -11 -8 -42 -14 -70 -15 -76 -20 -106
-26 -150 -2 -22 -7 -49 -9 -60 -18 -91 -26 -483 -12 -635 6 -70 29 -214 43
-270 3 -14 8 -38 11 -53 l6 -29 218 4 c127 2 222 7 228 13 7 7 4 34 -9 80 -36
137 -54 307 -54 530 1 165 10 298 28 390 3 17 11 59 16 95 6 36 13 76 16 90
15 80 6 137 -34 213 -29 55 -38 82 -34 103 15 82 286 562 326 577 10 4 21 -17
42 -80 16 -48 34 -88 39 -89 6 -2 27 23 47 54 21 31 50 73 65 92 41 51 232
241 277 275 21 17 45 36 52 43 35 34 217 147 322 200 167 85 314 138 497 181
50 11 64 14 140 26 193 30 449 31 658 2 33 -5 33 -1 0 93 l-27 77 39 49 c22
27 42 51 45 54 17 16 247 301 268 333 30 45 24 55 -40 68 -44 9 -51 10 -128
28 -25 5 -61 13 -80 16 -19 3 -55 11 -80 16 -25 6 -56 13 -70 15 -14 3 -124
25 -245 50 -216 44 -646 130 -695 139 -14 2 -50 9 -80 15 -30 6 -66 13 -80 16
-14 2 -68 13 -120 24 -52 10 -124 24 -160 30 -36 6 -74 12 -85 14 -16 3 -52
-35 -172 -182z"/>
<path d="M3487 4904 c-1 -1 -38 -5 -82 -9 -479 -39 -962 -260 -1290 -590 -264
-266 -466 -646 -533 -1005 -84 -441 -27 -887 161 -1265 115 -233 268 -431 470
-609 65 -57 213 -165 267 -194 19 -11 62 -35 95 -54 181 -103 482 -204 695
-232 219 -30 478 -28 675 4 281 45 594 170 848 337 130 86 203 146 311 256
l88 91 -262 258 -261 259 -103 -98 c-172 -164 -332 -262 -538 -327 -149 -47
-270 -63 -443 -60 -77 2 -149 5 -160 8 -11 2 -54 12 -97 20 -302 64 -577 252
-753 516 -115 173 -171 326 -200 545 -8 60 -8 260 -1 307 3 18 8 49 11 68 26
187 120 409 238 565 48 63 188 198 258 247 156 110 328 179 534 214 79 13 326
13 390 0 17 -4 55 -11 85 -17 104 -21 279 -91 400 -160 45 -26 174 -122 219
-163 65 -60 72 -67 119 -121 l43 -49 77 77 c42 42 164 162 270 266 l193 190
-21 29 c-37 50 -193 196 -275 258 -374 281 -835 433 -1323 438 -57 1 -104 0
-105 0z"/>
</g>
</svg>
