<svg version="1.1" viewBox="0 0 100.22 100.22" xmlns="http://www.w3.org/2000/svg">
 <g transform="translate(-1.2932 -.53725)">
  <g transform="translate(102.15 -154.47)">
   <g transform="translate(90.839 39.97)" fill="#ffffff">
    <path d="m-139.13 200.85c3.9361 0 7.6217-0.823 11.057-2.469 3.4351-1.646 6.4767-4.0077 9.1246-7.085l10.198 10.091c-3.5783 4.2224-8.1584 7.5859-13.741 10.091-5.5105 2.5048-11.2 3.7572-17.068 3.7572-5.6537 0-10.95-1.0019-15.888-3.0057-4.8664-2.0038-9.0888-4.7233-12.667-8.1584s-6.4051-7.5144-8.4805-12.238c-2.0038-4.7233-3.0058-9.8044-3.0058-15.243s1.0377-10.52 3.1131-15.243c2.0754-4.7949 4.9022-8.9099 8.4805-12.345 3.5783-3.4351 7.8006-6.1546 12.667-8.1584 4.938-2.0038 10.198-3.0058 15.78-3.0058 6.0115 0 11.844 1.2882 17.498 3.8645 5.6537 2.5048 10.234 5.9041 13.741 10.198l-10.52 10.413c-2.6479-3.292-5.761-5.7968-9.3393-7.5144-3.5783-1.7891-7.3712-2.6837-11.379-2.6837-3.3636 0-6.5482 0.64409-9.554 1.9323-2.9342 1.2166-5.4747 2.9342-7.6217 5.1527-2.147 2.147-3.8288 4.7233-5.0454 7.729-1.2166 2.9342-1.8249 6.1546-1.8249 9.6613 0 3.4351 0.60831 6.6556 1.8249 9.6613 1.2882 2.9342 3.0057 5.4748 5.1527 7.6217 2.2185 2.147 4.7949 3.8645 7.7291 5.1527 3.0058 1.2166 6.262 1.8249 9.7687 1.8249z" fill="#ffffff" stroke-width=".5591"/>
   </g>
   <path d="m-74.532 155.01c-3.5091 4.2042-23.258 28.736-23.372 29.032-0.11342 0.29559 1.4309 0.73234 5.0493 1.4278 2.8669 0.55104 5.3334 1.1102 5.4813 1.2428 0.1479 0.13262-0.69936 1.6965-1.8831 3.4752-1.1837 1.7787-2.8346 4.7843-3.6685 6.6792-1.4936 3.3941-1.5374 3.4495-2.9507 3.729-2.0398 0.40339-2.986 1.694-3.7047 5.054-1.6167 7.5586-1.7022 16.07-0.22479 22.358l0.3731 1.5875h4.3961c2.7145 0 4.3956-0.13572 4.3956-0.35501 0-0.19531-0.15278-0.88783-0.33951-1.5389-1.1779-4.1072-1.4375-12.85-0.52503-17.685 1.0454-5.5412 1.0449-6.3568-0.0078-7.8982-0.84663-1.2398-0.89515-1.4771-0.50126-2.4691 1.5314-3.8566 5.5681-10.799 6.2792-10.799 0.16158 0 0.50048 0.73801 0.75292 1.6397l0.45889 1.6392 0.32918 0.21601c1.5303-2.3442 3.2947-4.477 5.2943-6.3965 3.5783-3.4351 7.8005-6.1543 12.667-8.1582 4.938-2.0038 10.198-3.006 15.78-3.006 2.282 0 4.5381 0.18684 6.7686 0.55811-0.0061-0.0371-0.03824-0.23875-0.03824-0.23875 2.64e-4 -0.0905-0.25156-0.82468-0.55966-1.6314l-0.56017-1.4666 3.8768-4.7186c3.561-4.3342 3.813-4.7368 3.0913-4.9366-2.0092-0.55648-36.549-7.4722-36.659-7.3401z" color="#000000" color-rendering="auto" dominant-baseline="auto" fill="#c91517" image-rendering="auto" shape-rendering="auto" solid-color="#000000" stop-color="#000000" style="font-feature-settings:normal;font-variant-alternates:normal;font-variant-caps:normal;font-variant-east-asian:normal;font-variant-ligatures:normal;font-variant-numeric:normal;font-variant-position:normal;font-variation-settings:normal;inline-size:0;isolation:auto;mix-blend-mode:normal;shape-margin:0;shape-padding:0;text-decoration-color:#000000;text-decoration-line:none;text-decoration-style:solid;text-indent:0;text-orientation:mixed;text-transform:none;white-space:normal"/>
  </g>
 </g>
</svg>
