<svg version="1.1" viewBox="0 0 636.64 100.2" xmlns="http://www.w3.org/2000/svg">
 <g transform="matrix(.99966 0 0 .99966 .010319 -.0020016)">
  <g fill="#fff">
   <path d="m586.69 92.506 7.3018-9.7716q4.9395 3.2214 9.3421 4.8321 4.4026 1.5033 8.8052 1.5033 4.9395 0 7.8387-1.6107 3.0066-1.6107 3.0066-4.2952 0-2.1476-1.7181-3.4362-1.6107-1.2886-5.2616-1.8255l-10.738-1.6107q-8.2683-1.2886-12.671-5.369-4.2952-4.0804-4.2952-10.845 0-8.0535 6.3354-12.886t16.966-4.8321q6.1207 0 11.919 1.8255 5.7985 1.7181 11.06 5.1542l-7.0871 9.4494q-4.6173-2.6845-8.8052-3.9731-4.1878-1.3959-8.483-1.3959-3.9731 0-6.4428 1.5033-2.3624 1.5033-2.3624 3.9731 0 2.255 1.7181 3.5435 1.8255 1.1812 5.9059 1.7181l10.738 1.6107q8.1609 1.1812 12.563 5.369 4.51 4.1878 4.51 10.631 0 3.9731-1.9328 7.4092-1.8255 3.3288-5.0469 5.7985t-7.7314 3.8657-9.7716 1.3959q-7.624 0-14.282-1.9328-6.6576-2.0402-11.382-5.7985zm-63.998-21.261q0-6.1207 2.255-11.382 2.3624-5.369 6.3354-9.2347 4.0804-3.9731 9.5568-6.228t11.704-2.255 11.704 2.255 9.4494 6.228q4.0804 3.8657 6.3354 9.2347 2.3624 5.2616 2.3624 11.382t-2.3624 11.49q-2.255 5.2616-6.3354 9.1273-3.9731 3.8657-9.4494 6.1207-5.4764 2.255-11.704 2.255t-11.704-2.255-9.5568-6.1207q-3.9731-3.8657-6.3354-9.1273-2.255-5.369-2.255-11.49zm29.852 16.214q6.4428 0 10.953-4.7247t4.51-11.49q0-6.8723-4.51-11.597t-10.953-4.7247-10.953 4.7247-4.51 11.597q0 6.7649 4.51 11.49t10.953 4.7247zm-53.368 11.704v-4.6173q-3.3288 2.6845-7.4092 4.0804-4.0804 1.2886-8.483 1.2886-5.9059 0-11.168-2.255-5.1542-2.255-9.0199-6.1207t-6.1207-9.1273q-2.1476-5.2616-2.1476-11.275t2.255-11.275 6.1207-9.1273 9.1273-6.0133q5.369-2.255 11.382-2.255 4.0804 0 7.9461 1.1812 3.9731 1.0738 7.3018 3.2214v-22.872l14.711-3.2214v78.387zm-29.852-28.026q0 6.7649 4.7247 11.49t11.597 4.7247q4.0804 0 7.4092-1.3959 3.4362-1.3959 5.9059-3.9731v-21.798q-2.3624-2.4697-5.9059-3.8657-3.4362-1.3959-7.4092-1.3959-6.9797 0-11.704 4.7247-4.6173 4.6173-4.6173 11.49zm-53.797 28.993q-9.0199 0-14.711-4.7247-5.6911-4.8321-5.6911-12.456 0-7.9461 6.1207-12.456t16.859-4.51q3.4362 0 6.8723 0.5369t6.7649 1.6107v-3.9731q0-4.8321-3.0066-7.3018t-8.8052-2.4697q-3.5435 0-7.7314 1.1812-4.0804 1.0738-9.3421 3.4362l-5.369-10.845q6.5502-3.0066 12.671-4.51 6.228-1.5033 12.241-1.5033 11.275 0 17.503 5.4764 6.3354 5.369 6.3354 15.248v36.294h-14.496v-3.8657q-3.5435 2.4697-7.5166 3.6509-3.8657 1.1812-8.6978 1.1812zm-6.3354-17.503q0 3.2214 2.7919 5.1542 2.7919 1.8255 7.4092 1.8255 3.6509 0 6.6576-0.85904 3.114-0.96642 5.6911-2.6845v-8.3756q-2.6845-1.0738-5.6911-1.5033-2.8993-0.5369-6.1207-0.5369-5.0469 0-7.9461 1.9328-2.7919 1.8255-2.7919 5.0469zm-41.126 4.7247q3.7583 0 6.9797-1.5033 3.3288-1.5033 6.3354-4.7247l8.8052 9.1273q-4.2952 4.7247-10.308 7.4092-6.0133 2.5771-12.456 2.5771-6.1207 0-11.597-2.255-5.369-2.255-9.3421-6.1207-3.8657-3.8657-6.1207-9.1273-2.255-5.369-2.255-11.49t2.255-11.382q2.255-5.369 6.1207-9.2347 3.9731-3.9731 9.3421-6.228 5.4764-2.255 11.597-2.255 6.6576 0 12.778 2.6845 6.1207 2.5771 10.416 7.3018l-9.0199 9.5568q-3.0066-3.3288-6.4428-5.0469t-7.4092-1.7181q-6.3354 0-10.738 4.7247-4.2952 4.7247-4.2952 11.597t4.4026 11.49q4.51 4.6173 10.953 4.6173zm-46.281-50.791q-3.4362 0-5.9059-2.4697t-2.4697-5.9059 2.4697-5.9059 5.9059-2.4697 5.9059 2.4697 2.4697 5.9059-2.4697 5.9059-5.9059 2.4697zm7.4092 6.6576v55.945h-14.711v-55.945zm-64.858 0h12.456v-5.369q0-9.3421 5.4764-14.389t15.785-5.0469q2.255 0 4.6173 0.32214 2.3624 0.21476 4.0804 0.64428v12.349q-2.0402-0.42952-3.6509-0.64428-1.5033-0.21476-3.2214-0.21476-4.1878 0-6.3354 1.8255-2.0402 1.8255-2.0402 5.4764v5.0469h15.248v12.349h-15.248v43.596h-14.711v-43.596h-12.456zm-15.033-6.6576q-3.4362 0-5.9059-2.4697t-2.4697-5.9059 2.4697-5.9059 5.9059-2.4697 5.9059 2.4697 2.4697 5.9059-2.4697 5.9059-5.9059 2.4697zm7.4092 6.6576v55.945h-14.711v-55.945zm-52.616 40.16v-27.811h-11.49v-12.349h11.49v-14.282l14.711-3.3288v17.61h15.892v12.349h-15.892v24.805q0 3.9731 1.7181 5.5838t6.0133 1.6107q2.0402 0 3.8657-0.21476 1.8255-0.32214 3.9731-1.0738v12.027q-2.3624 0.75166-5.6911 1.1812-3.3288 0.5369-5.6911 0.5369-9.3421 0-14.174-4.1878-4.7247-4.2952-4.7247-12.456zm-52.187 15.785v-55.945h14.711v6.1207q2.6845-3.6509 6.4428-5.4764 3.8657-1.9328 8.483-1.9328 2.1476 0.10738 3.5435 0.42952 1.5033 0.21476 2.5771 0.85904v12.886q-1.6107-0.75166-3.5435-1.0738-1.9328-0.42952-3.9731-0.42952-4.2952 0-7.9461 2.1476-3.5435 2.1476-5.5838 6.228v36.187zm-12.778-6.9797q-5.1542 4.1878-10.631 6.1207-5.369 1.9328-12.027 1.9328-6.3354 0-11.919-2.255-5.4764-2.255-9.5568-6.1207-3.9731-3.8657-6.3354-9.1273-2.255-5.369-2.255-11.49 0-6.0133 2.1476-11.275 2.255-5.369 6.1207-9.2347 3.8657-3.9731 9.1273-6.228 5.369-2.255 11.382-2.255 5.9059 0 10.953 2.3624 5.1542 2.255 8.8052 6.228 3.7583 3.9731 5.7985 9.5568 2.1476 5.4764 2.1476 11.919v3.8657h-41.663q1.5033 5.2616 5.7985 8.483t10.094 3.2214q3.6509 0 6.8723-1.1812t5.4764-3.3288zm-24.268-37.798q-5.0469 0-8.6978 3.114-3.6509 3.0066-5.0469 8.1609h27.382q-1.3959-4.9395-5.1542-8.0535-3.6509-3.2214-8.483-3.2214zm-62.28 31.462q5.9059 0 11.06-2.4697t9.1273-7.0871l10.201 10.094q-5.369 6.3354-13.745 10.094-8.2683 3.7583-17.073 3.7583-8.483 0-15.892-3.0066-7.3018-3.0066-12.671-8.1609t-8.483-12.241q-3.0066-7.0871-3.0066-15.248t3.114-15.248q3.114-7.1945 8.483-12.349t12.671-8.1609q7.4092-3.0066 15.785-3.0066 9.0199 0 17.503 3.8657 8.483 3.7583 13.745 10.201l-10.523 10.416q-3.9731-4.9395-9.3421-7.5166-5.369-2.6845-11.382-2.6845-5.0469 0-9.5568 1.9328-4.4026 1.8255-7.624 5.1542-3.2214 3.2214-5.0469 7.7314-1.8255 4.4026-1.8255 9.6642 0 5.1542 1.8255 9.6642 1.9328 4.4026 5.1542 7.624 3.3288 3.2214 7.7314 5.1542 4.51 1.8255 9.7716 1.8255z" fill="#fff" stroke-width="1.1185"/>
  </g>
  <path d="m26.324 0.00131c-3.5091 4.2042-23.258 28.736-23.372 29.032-0.11342 0.29559 1.4309 0.73234 5.0493 1.4278 2.8669 0.55104 5.3334 1.1102 5.4813 1.2428 0.1479 0.13262-0.69936 1.6965-1.8831 3.4752-1.1837 1.7787-2.8346 4.7843-3.6685 6.6792-1.4936 3.3941-1.5374 3.4495-2.9507 3.729-2.0398 0.40339-2.986 1.694-3.7047 5.054-1.6167 7.5586-1.7022 16.07-0.22479 22.358l0.3731 1.5875h4.3961c2.7145 0 4.3956-0.13572 4.3956-0.35501 0-0.19531-0.15278-0.88783-0.33951-1.5389-1.1779-4.1072-1.4375-12.85-0.52503-17.685 1.0454-5.5412 1.0449-6.3568-0.0078-7.8982-0.84663-1.2398-0.89515-1.4771-0.50126-2.4691 1.5314-3.8566 5.5681-10.799 6.2792-10.799 0.16158 0 0.50048 0.73801 0.75292 1.6397l0.45889 1.6392 0.32918 0.21601c1.5303-2.3442 3.2947-4.477 5.2943-6.3965 3.5783-3.4351 7.8005-6.1543 12.667-8.1582 4.938-2.0038 10.198-3.006 15.78-3.006 2.282 0 4.5381 0.18684 6.7686 0.55811-0.0061-0.0371-0.03824-0.23875-0.03824-0.23875 2.64e-4 -0.0905-0.25156-0.82468-0.55966-1.6314l-0.56017-1.4666 3.8768-4.7186c3.561-4.3342 3.813-4.7368 3.0913-4.9366-2.0092-0.55648-36.549-7.4722-36.659-7.3401z" color="#000000" color-rendering="auto" dominant-baseline="auto" fill="#c91517" image-rendering="auto" shape-rendering="auto" solid-color="#000000" stop-color="#000000" style="font-feature-settings:normal;font-variant-alternates:normal;font-variant-caps:normal;font-variant-east-asian:normal;font-variant-ligatures:normal;font-variant-numeric:normal;font-variant-position:normal;font-variation-settings:normal;inline-size:0;isolation:auto;mix-blend-mode:normal;shape-margin:0;shape-padding:0;text-decoration-color:#000000;text-decoration-line:none;text-decoration-style:solid;text-indent:0;text-orientation:mixed;text-transform:none;white-space:normal"/>
 </g>
</svg>
